<mxfile host="app.diagrams.net" agent="Mozilla/5.0 (Windows NT 10.0; Win64; x64) AppleWebKit/537.36 (KHTML, like Gecko) Chrome/135.0.0.0 Safari/537.36" version="26.2.14">
  <diagram name="Pagina-1" id="Wkg0ixc6vErwrx3JSdeq">
    <mxGraphModel dx="1426" dy="757" grid="1" gridSize="10" guides="1" tooltips="1" connect="1" arrows="1" fold="1" page="1" pageScale="1" pageWidth="827" pageHeight="1169" math="0" shadow="0">
      <root>
        <mxCell id="0" />
        <mxCell id="1" parent="0" />
        <mxCell id="uFWkJfe8cBtiEX2_RWSZ-18" value="" style="edgeStyle=orthogonalEdgeStyle;rounded=0;orthogonalLoop=1;jettySize=auto;html=1;" edge="1" parent="1" source="uFWkJfe8cBtiEX2_RWSZ-4" target="uFWkJfe8cBtiEX2_RWSZ-11">
          <mxGeometry relative="1" as="geometry">
            <mxPoint x="250" y="95.0344827586207" as="targetPoint" />
            <Array as="points">
              <mxPoint x="160" y="120" />
            </Array>
          </mxGeometry>
        </mxCell>
        <mxCell id="uFWkJfe8cBtiEX2_RWSZ-19" value="" style="edgeStyle=orthogonalEdgeStyle;rounded=0;orthogonalLoop=1;jettySize=auto;html=1;entryX=0.5;entryY=0;entryDx=0;entryDy=0;" edge="1" parent="1" source="uFWkJfe8cBtiEX2_RWSZ-4" target="uFWkJfe8cBtiEX2_RWSZ-12">
          <mxGeometry relative="1" as="geometry" />
        </mxCell>
        <mxCell id="uFWkJfe8cBtiEX2_RWSZ-4" value="" style="rounded=0;whiteSpace=wrap;html=1;" vertex="1" parent="1">
          <mxGeometry x="340" y="40" width="120" height="160" as="geometry" />
        </mxCell>
        <mxCell id="uFWkJfe8cBtiEX2_RWSZ-5" value="Login" style="text;html=1;align=center;verticalAlign=middle;whiteSpace=wrap;rounded=0;" vertex="1" parent="1">
          <mxGeometry x="370" y="70" width="60" height="30" as="geometry" />
        </mxCell>
        <mxCell id="uFWkJfe8cBtiEX2_RWSZ-6" value="cliente?&lt;div&gt;assicuratore?&lt;/div&gt;&lt;div&gt;&lt;br&gt;&lt;/div&gt;" style="text;html=1;align=center;verticalAlign=middle;whiteSpace=wrap;rounded=0;" vertex="1" parent="1">
          <mxGeometry x="370" y="110" width="60" height="30" as="geometry" />
        </mxCell>
        <mxCell id="uFWkJfe8cBtiEX2_RWSZ-9" value="se assicuratore&lt;div&gt;&lt;br&gt;&lt;/div&gt;" style="text;html=1;align=center;verticalAlign=middle;whiteSpace=wrap;rounded=0;" vertex="1" parent="1">
          <mxGeometry x="510" y="80" width="60" height="30" as="geometry" />
        </mxCell>
        <mxCell id="uFWkJfe8cBtiEX2_RWSZ-11" value="" style="rounded=0;whiteSpace=wrap;html=1;" vertex="1" parent="1">
          <mxGeometry x="100" y="260" width="120" height="160" as="geometry" />
        </mxCell>
        <mxCell id="uFWkJfe8cBtiEX2_RWSZ-40" style="edgeStyle=orthogonalEdgeStyle;rounded=0;orthogonalLoop=1;jettySize=auto;html=1;entryX=0.5;entryY=0;entryDx=0;entryDy=0;" edge="1" parent="1" source="uFWkJfe8cBtiEX2_RWSZ-12" target="uFWkJfe8cBtiEX2_RWSZ-36">
          <mxGeometry relative="1" as="geometry" />
        </mxCell>
        <mxCell id="uFWkJfe8cBtiEX2_RWSZ-12" value="" style="rounded=0;whiteSpace=wrap;html=1;" vertex="1" parent="1">
          <mxGeometry x="580" y="260" width="120" height="160" as="geometry" />
        </mxCell>
        <mxCell id="uFWkJfe8cBtiEX2_RWSZ-13" value="Contratti&amp;nbsp;&lt;div&gt;Attivi (Home)&lt;/div&gt;" style="text;html=1;align=center;verticalAlign=middle;whiteSpace=wrap;rounded=0;" vertex="1" parent="1">
          <mxGeometry x="130" y="280" width="60" height="30" as="geometry" />
        </mxCell>
        <mxCell id="uFWkJfe8cBtiEX2_RWSZ-17" style="edgeStyle=orthogonalEdgeStyle;rounded=0;orthogonalLoop=1;jettySize=auto;html=1;" edge="1" parent="1" source="uFWkJfe8cBtiEX2_RWSZ-14" target="uFWkJfe8cBtiEX2_RWSZ-16">
          <mxGeometry relative="1" as="geometry" />
        </mxCell>
        <mxCell id="uFWkJfe8cBtiEX2_RWSZ-14" value="" style="rounded=0;whiteSpace=wrap;html=1;" vertex="1" parent="1">
          <mxGeometry x="105" y="330" width="110" height="20" as="geometry" />
        </mxCell>
        <mxCell id="uFWkJfe8cBtiEX2_RWSZ-15" value="contratto 1&lt;div&gt;&lt;br&gt;&lt;/div&gt;" style="text;html=1;align=center;verticalAlign=middle;whiteSpace=wrap;rounded=0;" vertex="1" parent="1">
          <mxGeometry x="130" y="330" width="60" height="30" as="geometry" />
        </mxCell>
        <mxCell id="uFWkJfe8cBtiEX2_RWSZ-16" value="" style="rounded=0;whiteSpace=wrap;html=1;" vertex="1" parent="1">
          <mxGeometry x="240" y="440" width="120" height="160" as="geometry" />
        </mxCell>
        <mxCell id="uFWkJfe8cBtiEX2_RWSZ-20" value="se cliente" style="text;html=1;align=center;verticalAlign=middle;whiteSpace=wrap;rounded=0;" vertex="1" parent="1">
          <mxGeometry x="220" y="80" width="60" height="30" as="geometry" />
        </mxCell>
        <mxCell id="uFWkJfe8cBtiEX2_RWSZ-21" value="" style="endArrow=none;dashed=1;html=1;dashPattern=1 3;strokeWidth=2;rounded=0;entryX=0.5;entryY=1;entryDx=0;entryDy=0;" edge="1" parent="1" target="uFWkJfe8cBtiEX2_RWSZ-15">
          <mxGeometry width="50" height="50" relative="1" as="geometry">
            <mxPoint x="160" y="400" as="sourcePoint" />
            <mxPoint x="180" y="360" as="targetPoint" />
          </mxGeometry>
        </mxCell>
        <mxCell id="uFWkJfe8cBtiEX2_RWSZ-22" value="Info contratto" style="text;html=1;align=center;verticalAlign=middle;whiteSpace=wrap;rounded=0;" vertex="1" parent="1">
          <mxGeometry x="270" y="460" width="60" height="30" as="geometry" />
        </mxCell>
        <mxCell id="uFWkJfe8cBtiEX2_RWSZ-23" value="" style="endArrow=none;dashed=1;html=1;dashPattern=1 3;strokeWidth=2;rounded=0;entryX=0.5;entryY=1;entryDx=0;entryDy=0;" edge="1" parent="1">
          <mxGeometry width="50" height="50" relative="1" as="geometry">
            <mxPoint x="299.71000000000004" y="550" as="sourcePoint" />
            <mxPoint x="299.71000000000004" y="510" as="targetPoint" />
          </mxGeometry>
        </mxCell>
        <mxCell id="uFWkJfe8cBtiEX2_RWSZ-24" value="" style="rounded=0;whiteSpace=wrap;html=1;" vertex="1" parent="1">
          <mxGeometry x="245" y="565" width="110" height="20" as="geometry" />
        </mxCell>
        <mxCell id="uFWkJfe8cBtiEX2_RWSZ-25" value="verifica manuale" style="text;html=1;align=center;verticalAlign=middle;whiteSpace=wrap;rounded=0;" vertex="1" parent="1">
          <mxGeometry x="250" y="560" width="100" height="30" as="geometry" />
        </mxCell>
        <mxCell id="uFWkJfe8cBtiEX2_RWSZ-26" value="Contratti&amp;nbsp;&lt;div&gt;Attivi (Home)&lt;/div&gt;" style="text;html=1;align=center;verticalAlign=middle;whiteSpace=wrap;rounded=0;" vertex="1" parent="1">
          <mxGeometry x="610" y="290" width="60" height="30" as="geometry" />
        </mxCell>
        <mxCell id="uFWkJfe8cBtiEX2_RWSZ-35" style="edgeStyle=orthogonalEdgeStyle;rounded=0;orthogonalLoop=1;jettySize=auto;html=1;entryX=0.5;entryY=0;entryDx=0;entryDy=0;" edge="1" parent="1" source="uFWkJfe8cBtiEX2_RWSZ-27" target="uFWkJfe8cBtiEX2_RWSZ-30">
          <mxGeometry relative="1" as="geometry" />
        </mxCell>
        <mxCell id="uFWkJfe8cBtiEX2_RWSZ-27" value="" style="rounded=0;whiteSpace=wrap;html=1;" vertex="1" parent="1">
          <mxGeometry x="585" y="340" width="110" height="20" as="geometry" />
        </mxCell>
        <mxCell id="uFWkJfe8cBtiEX2_RWSZ-28" value="contratto 1&lt;div&gt;&lt;br&gt;&lt;/div&gt;" style="text;html=1;align=center;verticalAlign=middle;whiteSpace=wrap;rounded=0;" vertex="1" parent="1">
          <mxGeometry x="610" y="340" width="60" height="30" as="geometry" />
        </mxCell>
        <mxCell id="uFWkJfe8cBtiEX2_RWSZ-29" value="" style="endArrow=none;dashed=1;html=1;dashPattern=1 3;strokeWidth=2;rounded=0;entryX=0.5;entryY=1;entryDx=0;entryDy=0;" edge="1" parent="1">
          <mxGeometry width="50" height="50" relative="1" as="geometry">
            <mxPoint x="639.6600000000001" y="410" as="sourcePoint" />
            <mxPoint x="639.6600000000001" y="370" as="targetPoint" />
          </mxGeometry>
        </mxCell>
        <mxCell id="uFWkJfe8cBtiEX2_RWSZ-30" value="" style="rounded=0;whiteSpace=wrap;html=1;" vertex="1" parent="1">
          <mxGeometry x="420" y="440" width="120" height="160" as="geometry" />
        </mxCell>
        <mxCell id="uFWkJfe8cBtiEX2_RWSZ-31" value="Info contratto" style="text;html=1;align=center;verticalAlign=middle;whiteSpace=wrap;rounded=0;" vertex="1" parent="1">
          <mxGeometry x="460" y="460" width="60" height="30" as="geometry" />
        </mxCell>
        <mxCell id="uFWkJfe8cBtiEX2_RWSZ-32" value="" style="endArrow=none;dashed=1;html=1;dashPattern=1 3;strokeWidth=2;rounded=0;entryX=0.5;entryY=1;entryDx=0;entryDy=0;" edge="1" parent="1">
          <mxGeometry width="50" height="50" relative="1" as="geometry">
            <mxPoint x="489.71000000000004" y="550" as="sourcePoint" />
            <mxPoint x="489.71000000000004" y="510" as="targetPoint" />
          </mxGeometry>
        </mxCell>
        <mxCell id="uFWkJfe8cBtiEX2_RWSZ-36" value="" style="rounded=0;whiteSpace=wrap;html=1;" vertex="1" parent="1">
          <mxGeometry x="670" y="505" width="120" height="160" as="geometry" />
        </mxCell>
        <mxCell id="uFWkJfe8cBtiEX2_RWSZ-37" value="Creazione&lt;div&gt;Contratto&lt;/div&gt;&lt;div&gt;&lt;br&gt;&lt;/div&gt;" style="text;html=1;align=center;verticalAlign=middle;whiteSpace=wrap;rounded=0;" vertex="1" parent="1">
          <mxGeometry x="700" y="530" width="60" height="30" as="geometry" />
        </mxCell>
      </root>
    </mxGraphModel>
  </diagram>
</mxfile>
